g sphere01
v 0.000000 -1.000000 0.000000
v 0.723607 -0.447220 0.525725
v -0.276388 -0.447220 0.850649
v -0.894426 -0.447216 0.000000
v -0.276388 -0.447220 -0.850649
v 0.723607 -0.447220 -0.525725
v 0.276388 0.447220 0.850649
v -0.723607 0.447220 0.525725
v -0.723607 0.447220 -0.525725
v 0.276388 0.447220 -0.850649
v 0.894426 0.447216 0.000000
v 0.000000 1.000000 0.000000
v -0.162456 -0.850654 0.499995
v 0.425323 -0.850654 0.309011
v 0.262869 -0.525738 0.809012
v 0.850648 -0.525736 0.000000
v 0.425323 -0.850654 -0.309011
v -0.525730 -0.850652 0.000000
v -0.688189 -0.525736 0.499997
v -0.162456 -0.850654 -0.499995
v -0.688189 -0.525736 -0.499997
v 0.262869 -0.525738 -0.809012
v 0.951058 0.000000 0.309013
v 0.951058 0.000000 -0.309013
v 0.000000 0.000000 1.000000
v 0.587786 0.000000 0.809017
v -0.951058 0.000000 0.309013
v -0.587786 0.000000 0.809017
v -0.587786 0.000000 -0.809017
v -0.951058 0.000000 -0.309013
v 0.587786 0.000000 -0.809017
v 0.000000 0.000000 -1.000000
v 0.688189 0.525736 0.499997
v -0.262869 0.525738 0.809012
v -0.850648 0.525736 0.000000
v -0.262869 0.525738 -0.809012
v 0.688189 0.525736 -0.499997
v 0.162456 0.850654 0.499995
v 0.525730 0.850652 0.000000
v -0.425323 0.850654 0.309011
v -0.425323 0.850654 -0.309011
v 0.162456 0.850654 -0.499995
# 42 vertices, 0 vertices normals
vt 0.5 0.5

vn 0.000000 -1.000000 0.000000
vn 0.723607 -0.447220 0.525725
vn -0.276388 -0.447220 0.850649
vn -0.894426 -0.447216 0.000000
vn -0.276388 -0.447220 -0.850649
vn 0.723607 -0.447220 -0.525725
vn 0.276388 0.447220 0.850649
vn -0.723607 0.447220 0.525725
vn -0.723607 0.447220 -0.525725
vn 0.276388 0.447220 -0.850649
vn 0.894426 0.447216 0.000000
vn 0.000000 1.000000 0.000000
vn -0.162456 -0.850654 0.499995
vn 0.425323 -0.850654 0.309011
vn 0.262869 -0.525738 0.809012
vn 0.850648 -0.525736 0.000000
vn 0.425323 -0.850654 -0.309011
vn -0.525730 -0.850652 0.000000
vn -0.688189 -0.525736 0.499997
vn -0.162456 -0.850654 -0.499995
vn -0.688189 -0.525736 -0.499997
vn 0.262869 -0.525738 -0.809012
vn 0.951058 0.000000 0.309013
vn 0.951058 0.000000 -0.309013
vn 0.000000 0.000000 1.000000
vn 0.587786 0.000000 0.809017
vn -0.951058 0.000000 0.309013
vn -0.587786 0.000000 0.809017
vn -0.587786 0.000000 -0.809017
vn -0.951058 0.000000 -0.309013
vn 0.587786 0.000000 -0.809017
vn 0.000000 0.000000 -1.000000
vn 0.688189 0.525736 0.499997
vn -0.262869 0.525738 0.809012
vn -0.850648 0.525736 0.000000
vn -0.262869 0.525738 -0.809012
vn 0.688189 0.525736 -0.499997
vn 0.162456 0.850654 0.499995
vn 0.525730 0.850652 0.000000
vn -0.425323 0.850654 0.309011
vn -0.425323 0.850654 -0.309011
vn 0.162456 0.850654 -0.499995

f 1/1/1 14/1/14 13/1/13
f 2/1/2 14/1/14 16/1/16
f 1/1/1 13/1/13 18/1/18
f 1/1/1 18/1/18 20/1/20
f 1/1/1 20/1/20 17/1/17
f 2/1/2 16/1/16 23/1/23
f 3/1/3 15/1/15 25/1/25
f 4/1/4 19/1/19 27/1/27
f 5/1/5 21/1/21 29/1/29
f 6/1/6 22/1/22 31/1/31
f 2/1/2 23/1/23 26/1/26
f 3/1/3 25/1/25 28/1/28
f 4/1/4 27/1/27 30/1/30
f 5/1/5 29/1/29 32/1/32
f 6/1/6 31/1/31 24/1/24
f 7/1/7 33/1/33 38/1/38
f 8/1/8 34/1/34 40/1/40
f 9/1/9 35/1/35 41/1/41
f 10/1/10 36/1/36 42/1/42
f 11/1/11 37/1/37 39/1/39
f 39/1/39 42/1/42 12/1/12
f 39/1/39 37/1/37 42/1/42
f 37/1/37 10/1/10 42/1/42
f 42/1/42 41/1/41 12/1/12
f 42/1/42 36/1/36 41/1/41
f 36/1/36 9/1/9 41/1/41
f 41/1/41 40/1/40 12/1/12
f 41/1/41 35/1/35 40/1/40
f 35/1/35 8/1/8 40/1/40
f 40/1/40 38/1/38 12/1/12
f 40/1/40 34/1/34 38/1/38
f 34/1/34 7/1/7 38/1/38
f 38/1/38 39/1/39 12/1/12
f 38/1/38 33/1/33 39/1/39
f 33/1/33 11/1/11 39/1/39
f 24/1/24 37/1/37 11/1/11
f 24/1/24 31/1/31 37/1/37
f 31/1/31 10/1/10 37/1/37
f 32/1/32 36/1/36 10/1/10
f 32/1/32 29/1/29 36/1/36
f 29/1/29 9/1/9 36/1/36
f 30/1/30 35/1/35 9/1/9
f 30/1/30 27/1/27 35/1/35
f 27/1/27 8/1/8 35/1/35
f 28/1/28 34/1/34 8/1/8
f 28/1/28 25/1/25 34/1/34
f 25/1/25 7/1/7 34/1/34
f 26/1/26 33/1/33 7/1/7
f 26/1/26 23/1/23 33/1/33
f 23/1/23 11/1/11 33/1/33
f 31/1/31 32/1/32 10/1/10
f 31/1/31 22/1/22 32/1/32
f 22/1/22 5/1/5 32/1/32
f 29/1/29 30/1/30 9/1/9
f 29/1/29 21/1/21 30/1/30
f 21/1/21 4/1/4 30/1/30
f 27/1/27 28/1/28 8/1/8
f 27/1/27 19/1/19 28/1/28
f 19/1/19 3/1/3 28/1/28
f 25/1/25 26/1/26 7/1/7
f 25/1/25 15/1/15 26/1/26
f 15/1/15 2/1/2 26/1/26
f 23/1/23 24/1/24 11/1/11
f 23/1/23 16/1/16 24/1/24
f 16/1/16 6/1/6 24/1/24
f 17/1/17 22/1/22 6/1/6
f 17/1/17 20/1/20 22/1/22
f 20/1/20 5/1/5 22/1/22
f 20/1/20 21/1/21 5/1/5
f 20/1/20 18/1/18 21/1/21
f 18/1/18 4/1/4 21/1/21
f 18/1/18 19/1/19 4/1/4
f 18/1/18 13/1/13 19/1/19
f 13/1/13 3/1/3 19/1/19
f 16/1/16 17/1/17 6/1/6
f 16/1/16 14/1/14 17/1/17
f 14/1/14 1/1/1 17/1/17
f 13/1/13 15/1/15 3/1/3
f 13/1/13 14/1/14 15/1/15
f 14/1/14 2/1/2 15/1/15
# 80 faces, 0 coords texture
